<mxfile host="app.diagrams.net" modified="2024-04-04T16:56:41.032Z" agent="Mozilla/5.0 (X11; Linux x86_64) AppleWebKit/537.36 (KHTML, like Gecko) Chrome/122.0.0.0 Safari/537.36" version="24.2.2" etag="O19ZvOWPk0kyQCqtcTws" type="github">
  <diagram name="Page-1" id="4IdwQHLyeH34mbb2Q6S3">
    <mxGraphModel>
      <root>
        <mxCell id="0" />
        <mxCell id="1" parent="0" />
      </root>
    </mxGraphModel>
  </diagram>
</mxfile>
